name processed_emg_signals						
nRows=116						
nColumns=7						
 						
endheader						
time	LGLTMED	LRF	LADDLONG	LST	LTA	LGM
1.327	0.062772537	0.047068845	0.038497172	0.124370331	0.152735579	0.416606677
1.328	0.062215879	0.047021416	0.038715992	0.124121341	0.152590432	0.42250542
1.329	0.061659521	0.046972465	0.038942807	0.123845634	0.152451484	0.428338165
1.33	0.061103855	0.046922016	0.039177672	0.123543069	0.152318789	0.434099968
1.331	0.060549272	0.046870093	0.039420632	0.123213534	0.152192375	0.439785924
1.332	0.059996162	0.046816722	0.039671722	0.122856945	0.152072249	0.445391173
1.333	0.059444911	0.046761929	0.039930966	0.122473247	0.151958395	0.450910907
1.334	0.058895905	0.04670574	0.040198377	0.122062413	0.151850772	0.456340377
1.335	0.058349525	0.046648184	0.040473959	0.121624446	0.151749312	0.461674899
1.336	0.057806149	0.046589287	0.040757704	0.121159377	0.151653924	0.466909862
1.337	0.057266152	0.046529079	0.041049592	0.120667266	0.151564489	0.472040735
1.338	0.056729905	0.04646759	0.041349592	0.120148204	0.151480861	0.477063073
1.339	0.056197773	0.04640485	0.041657661	0.119602309	0.151402866	0.481972523
1.34	0.05567012	0.046340891	0.041973747	0.119029729	0.151330304	0.48676483
1.341	0.055147302	0.046275746	0.042297782	0.118430641	0.151262944	0.491435847
1.342	0.05462967	0.046209448	0.042629689	0.117805252	0.151200529	0.495981536
1.343	0.054117572	0.046142033	0.042969379	0.117153797	0.15114277	0.500397976
1.344	0.053611349	0.046073536	0.043316748	0.116476541	0.151089351	0.504681373
1.345	0.053111334	0.046003994	0.043671683	0.115773778	0.151039925	0.508828057
1.346	0.052617856	0.045933446	0.044034058	0.115045829	0.150994117	0.512834495
1.347	0.052131238	0.045861932	0.044403733	0.114293047	0.150951519	0.516697294
1.348	0.051651794	0.045789492	0.044780558	0.113515809	0.150911697	0.520413202
1.349	0.051179833	0.045716168	0.04516437	0.112714522	0.150874184	0.523979119
1.35	0.050715654	0.045642003	0.045554993	0.111889623	0.150838487	0.527392097
1.351	0.050259551	0.045567042	0.04595224	0.111041572	0.15080408	0.530649345
1.352	0.049811809	0.04549133	0.046355911	0.110170859	0.150770409	0.533748234
1.353	0.049372706	0.045414913	0.046765796	0.109277998	0.150736892	0.5366863
1.354	0.04894251	0.045337838	0.047181671	0.108363532	0.150702916	0.539461245
1.355	0.048521482	0.045260155	0.047603302	0.107428026	0.150667843	0.542070944
1.356	0.048109874	0.045181913	0.048030442	0.106472071	0.150631004	0.544513445
1.357	0.047707929	0.045103161	0.048462835	0.105496284	0.150591705	0.54678697
1.358	0.04731588	0.045023952	0.048900211	0.104501301	0.150549223	0.548889921
1.359	0.046933954	0.044944336	0.049342292	0.103487784	0.150502813	0.550820876
1.36	0.046562363	0.044864367	0.049788789	0.102456415	0.1504517	0.552578597
1.361	0.046201316	0.044784098	0.050239401	0.101407896	0.150395087	0.554162023
1.362	0.045851006	0.04470358	0.05069382	0.100342952	0.150332154	0.555570277
1.363	0.04551162	0.04462287	0.051151727	0.099262322	0.150262058	0.556802661
1.364	0.045183334	0.04454202	0.051612793	0.098166766	0.150183933	0.557858662
1.365	0.044866314	0.044461084	0.052076682	0.097057061	0.150096894	0.558737943
1.366	0.044560713	0.044380118	0.052543049	0.095933996	0.150000037	0.55944035
1.367	0.044266678	0.044299174	0.053011541	0.094798379	0.149892438	0.559965907
1.368	0.043984341	0.044218307	0.053481798	0.093651028	0.149773159	0.560314813
1.369	0.043713826	0.04413757	0.053953452	0.092492773	0.149641246	0.560487443
1.37	0.043455245	0.044057016	0.054426129	0.091324458	0.14949573	0.560484347
1.371	0.043208699	0.043976698	0.05489945	0.090146933	0.149335631	0.560306241
1.372	0.042974278	0.043896668	0.055373029	0.088961059	0.149159959	0.559954014
1.373	0.042752061	0.043816977	0.055846476	0.087767703	0.148967714	0.559428714
1.374	0.042542116	0.043737675	0.056319396	0.086567738	0.148757891	0.558731556
1.375	0.042344499	0.043658811	0.056791391	0.085362042	0.148529478	0.55786391
1.376	0.042159254	0.043580434	0.057262057	0.084151497	0.148281462	0.556827299
1.377	0.041986417	0.043502589	0.05773099	0.082936986	0.148012827	0.555623401
1.378	0.041826008	0.043425324	0.058197782	0.081719395	0.147722559	0.554254035
1.379	0.041678039	0.043348682	0.058662026	0.080499608	0.147409649	0.552721165
1.38	0.041542509	0.043272705	0.059123309	0.079278507	0.147073091	0.55102689
1.381	0.041419406	0.043197436	0.059581222	0.078056974	0.146711889	0.549173443
1.382	0.041308706	0.043122913	0.060035353	0.076835885	0.146325055	0.547163183
1.383	0.041210374	0.043049174	0.060485292	0.075616111	0.145911616	0.544998592
1.384	0.041124366	0.042976255	0.06093063	0.074398517	0.145470613	0.542682268
1.385	0.041050623	0.04290419	0.06137096	0.073183962	0.145001104	0.54021692
1.386	0.040989077	0.042833011	0.061805875	0.071973295	0.14450217	0.537605364
1.387	0.040939648	0.042762749	0.062234973	0.070767354	0.143972912	0.534850515
1.388	0.040902247	0.042693431	0.062657855	0.069566969	0.143412457	0.531955385
1.389	0.040876772	0.042625084	0.063074127	0.068372957	0.142819962	0.528923071
1.39	0.040863111	0.042557731	0.063483396	0.067186122	0.142194614	0.525756756
1.391	0.040861143	0.042491395	0.063885279	0.066007253	0.141535632	0.5224597
1.392	0.040870735	0.042426095	0.064279394	0.064837126	0.140842273	0.519035234
1.393	0.040891744	0.042361848	0.06466537	0.0636765	0.140113834	0.515486755
1.394	0.040924017	0.042298669	0.065042838	0.062526117	0.139349651	0.511817721
1.395	0.040967393	0.042236573	0.065411441	0.061386702	0.138549106	0.508031646
1.396	0.041021699	0.042175569	0.065770825	0.060258961	0.137711628	0.50413209
1.397	0.041086756	0.042115667	0.06612065	0.059143581	0.136836697	0.500122659
1.398	0.041162372	0.042056873	0.066460581	0.058041229	0.135923843	0.496006999
1.399	0.04124835	0.041999192	0.066790293	0.05695255	0.134972652	0.491788786
1.4	0.041344483	0.041942625	0.067109474	0.055878169	0.133982768	0.487471727
1.401	0.041450555	0.041887174	0.067417819	0.054818688	0.132953896	0.483059551
1.402	0.041566344	0.041832836	0.067715036	0.053774687	0.131885801	0.478556004
1.403	0.041691619	0.041779607	0.068000845	0.052746722	0.130778316	0.473964849
1.404	0.041826144	0.041727482	0.068274976	0.051735326	0.129631338	0.469289854
1.405	0.041969674	0.041676452	0.068537173	0.050741006	0.128444836	0.464534794
1.406	0.042121958	0.041626508	0.068787193	0.049764248	0.127218851	0.459703443
1.407	0.04228274	0.041577638	0.069024806	0.04880551	0.125953496	0.454799572
1.408	0.042451757	0.041529828	0.069249796	0.047865224	0.12464896	0.449826944
1.409	0.042628742	0.041483064	0.069461961	0.046943801	0.123305513	0.444789308
1.41	0.042813423	0.041437328	0.069661112	0.046041622	0.121923503	0.4396904
1.411	0.043005521	0.041392602	0.069847077	0.045159043	0.120503357	0.434533935
1.412	0.043204755	0.041348865	0.070019698	0.044296396	0.11904559	0.429323609
1.413	0.043410841	0.041306095	0.070178834	0.043453985	0.117550799	0.424063088
1.414	0.043623491	0.041264269	0.070324357	0.042632088	0.116019668	0.418756013
1.415	0.043842412	0.041223362	0.070456157	0.041830957	0.114452971	0.413405993
1.416	0.044067311	0.041183348	0.070574139	0.041050819	0.112851567	0.408016602
1.417	0.044297891	0.041144199	0.070678227	0.040291875	0.111216411	0.40259138
1.418	0.044533856	0.041105885	0.070768358	0.039554298	0.109548543	0.397133826
1.419	0.044774906	0.041068378	0.070844489	0.038838237	0.107849101	0.391647401
1.42	0.045020742	0.041031643	0.070906591	0.038143817	0.106119313	0.386135522
1.421	0.045271062	0.04099565	0.070954654	0.037471136	0.104360502	0.380601561
1.422	0.045525567	0.040960364	0.070988684	0.036820267	0.102574085	0.375048847
1.423	0.045783956	0.040925748	0.071008705	0.036191259	0.100761573	0.369480657
1.424	0.046045931	0.040891768	0.071014757	0.035584139	0.098924572	0.363900223
1.425	0.046311193	0.040858385	0.071006897	0.034998906	0.097064785	0.358310726
1.426	0.046579446	0.040825561	0.0709852	0.03443554	0.095184006	0.352715293
1.427	0.046850395	0.040793256	0.070949758	0.033893995	0.093284128	0.347117004
1.428	0.047123749	0.04076143	0.070900677	0.033374205	0.091367134	0.341518881
1.429	0.047399216	0.04073004	0.070838084	0.032876081	0.089435103	0.335923896
1.43	0.047676513	0.040699044	0.070762118	0.032399513	0.087490206	0.330334964
1.431	0.047955354	0.040668399	0.070672938	0.031944371	0.085534708	0.324754946
1.432	0.048235463	0.04063806	0.070570716	0.031510505	0.083570962	0.319186649
1.433	0.048516562	0.040607983	0.070455641	0.031097744	0.081601413	0.313632824
1.434	0.048798383	0.040578122	0.070327918	0.0307059	0.079628595	0.308096166
1.435	0.049080659	0.04054843	0.070187767	0.030334766	0.077655128	0.302579316
1.436	0.04936313	0.04051886	0.070035421	0.029984119	0.075683717	0.297084857
1.437	0.04964554	0.040489366	0.06987113	0.029653716	0.073717153	0.29161532
1.438	0.04992764	0.040459899	0.069695156	0.029343301	0.071758309	0.286173178
1.439	0.050209185	0.040430411	0.069507776	0.029052601	0.069810135	0.28076085
1.44	0.050489938	0.040400854	0.06930928	0.028781331	0.067875662	0.275380702
1.441	0.050769667	0.040371179	0.069099969	0.028529188	0.065957996	0.270035043
1.442	0.051048146	0.040341336	0.06888016	0.028295858	0.064060315	0.264726129
